<?xml version="1.0" standalone="no"?>
<!DOCTYPE svg PUBLIC "-//W3C//DTD SVG 20010904//EN"
 "http://www.w3.org/TR/2001/REC-SVG-20010904/DTD/svg10.dtd">
<svg version="1.0" xmlns="http://www.w3.org/2000/svg"
 width="2000.000000pt" height="2000.000000pt" viewBox="0 0 2000.000000 2000.000000"
 preserveAspectRatio="xMidYMid meet">
<metadata>
Created by potrace 1.11, written by Peter Selinger 2001-2013
</metadata>
<g transform="translate(0.000000,2000.000000) scale(0.100000,-0.100000)"
fill="#000000" stroke="none">
<path d="M5420 15833 c-84 -9 -257 -46 -343 -73 -144 -47 -357 -158 -477 -249
-77 -58 -251 -226 -646 -623 -502 -504 -547 -551 -617 -658 -160 -242 -248
-489 -277 -775 -8 -78 -10 -711 -8 -2165 3 -1916 5 -2061 21 -2143 74 -368
224 -654 472 -902 256 -255 569 -413 945 -476 41 -7 450 -13 1115 -19 630 -5
1095 -12 1162 -19 62 -6 147 -22 190 -36 145 -46 294 -146 383 -257 31 -39
260 -473 734 -1395 379 -736 714 -1379 745 -1430 118 -193 218 -291 376 -369
131 -64 224 -86 370 -87 131 0 207 15 326 63 152 63 241 140 787 683 484 480
596 613 774 917 31 52 239 435 463 850 253 468 426 779 457 817 89 113 243
208 386 239 54 11 223 15 837 20 854 6 1005 12 1175 50 253 57 511 181 690
333 30 25 293 285 585 576 378 377 547 553 587 610 151 217 241 428 295 695
16 78 17 246 20 2150 3 1390 0 2097 -7 2163 -21 197 -69 371 -151 546 -230
488 -664 828 -1206 943 l-108 23 -5010 1 c-2756 0 -5026 -1 -5045 -3z m10115
-701 c373 -108 634 -379 737 -765 l22 -82 4 -1985 c2 -1362 0 -2018 -8 -2091
-14 -139 -40 -233 -100 -354 -130 -263 -360 -448 -655 -528 -79 -21 -93 -21
-1290 -27 -1111 -6 -1216 -8 -1285 -24 -245 -58 -448 -172 -610 -343 -43 -45
-98 -113 -123 -150 -24 -37 -340 -624 -702 -1303 -362 -679 -674 -1257 -693
-1284 -20 -27 -62 -68 -94 -92 -148 -109 -328 -123 -497 -38 -136 68 -104 16
-849 1408 -370 693 -692 1286 -714 1320 -62 93 -220 245 -323 312 -151 98
-320 161 -495 184 -44 5 -534 10 -1201 10 -1245 0 -1217 -1 -1390 64 -303 113
-529 364 -617 682 l-27 99 -3 2025 c-2 1472 0 2047 8 2105 61 424 391 777 810
866 81 17 305 18 5050 16 l4965 -2 80 -23z"/>
<path d="M7370 12739 c-121 -24 -238 -117 -297 -237 l-38 -76 0 -375 c0 -425
-1 -420 79 -529 51 -68 134 -127 218 -154 53 -16 97 -18 393 -18 305 0 338 2
398 20 124 38 226 137 279 271 21 50 22 74 26 362 4 336 -2 405 -45 494 -32
69 -118 161 -180 196 -97 52 -139 57 -478 56 -170 -1 -330 -5 -355 -10z"/>
<path d="M10081 12734 c-156 -42 -275 -162 -316 -319 -19 -73 -22 -631 -4
-717 28 -132 119 -247 244 -309 l70 -34 375 0 376 0 75 37 c93 46 168 122 212
215 l32 68 0 375 0 375 -34 70 c-62 125 -183 221 -312 245 -85 16 -654 11
-718 -6z"/>
<path d="M12815 12736 c-154 -38 -279 -159 -320 -308 -14 -55 -16 -109 -13
-408 l3 -345 32 -68 c44 -93 119 -169 212 -215 l75 -37 375 0 376 0 65 31
c122 58 213 165 245 289 12 47 15 122 15 367 0 186 -4 328 -11 360 -34 161
-176 303 -337 337 -75 16 -651 13 -717 -3z"/>
</g>
</svg>
